<svg width="24" height="14" viewBox="0 0 24 14" fill="none" xmlns="http://www.w3.org/2000/svg">
<path d="M17 0.5H7C3.41015 0.5 0.5 3.41015 0.5 7C0.5 10.5899 3.41015 13.5 7 13.5H17C20.5899 13.5 23.5 10.5899 23.5 7C23.5 3.41015 20.5899 0.5 17 0.5Z" fill="#99D9D9"/>
<path d="M17 12C19.7614 12 22 9.76142 22 7C22 4.23858 19.7614 2 17 2C14.2386 2 12 4.23858 12 7C12 9.76142 14.2386 12 17 12Z" fill="white"/>
<path d="M17 0.5H7C3.41015 0.5 0.5 3.41015 0.5 7C0.5 10.5899 3.41015 13.5 7 13.5H17C20.5899 13.5 23.5 10.5899 23.5 7C23.5 3.41015 20.5899 0.5 17 0.5Z" stroke="#6AB8B8"/>
<path d="M17 12C19.7614 12 22 9.76142 22 7C22 4.23858 19.7614 2 17 2C14.2386 2 12 4.23858 12 7C12 9.76142 14.2386 12 17 12Z" stroke="#6AB8B8"/>
</svg>